HIERARCHY
ROOT Hips
{
	OFFSET 0.000000 71.427986 0.000000
	CHANNELS 6 Xposition Yposition Zposition Xrotation Yrotation Zrotation
	JOINT Pelvis
	{
		OFFSET 0.000000 0.000000 0.000000
		CHANNELS 3 Xrotation Yrotation Zrotation
		JOINT LeftUpLeg
		{
			OFFSET 6.797100 -2.508499 -1.318700
			CHANNELS 3 Xrotation Yrotation Zrotation
			JOINT LeftLeg
			{
				OFFSET 0.069008 -29.241863 0.690200
				CHANNELS 3 Xrotation Yrotation Zrotation
				JOINT LeftFoot
				{
					OFFSET -0.069008 -29.568123 -0.266800
					CHANNELS 3 Xrotation Yrotation Zrotation
					JOINT LeftToeBase
					{
						OFFSET 3.145500 -8.631000 16.059900
						CHANNELS 3 Xrotation Yrotation Zrotation
						End Site
						{
							OFFSET 0.000000 18.501587 0.000000
						}
					}
				}
			}
			JOINT Left_ShortSleeve
			{
				OFFSET 0.265923 -10.480953 1.153800
				CHANNELS 3 Xrotation Yrotation Zrotation
				End Site
				{
					OFFSET 1.725763 19.823879 0.000000
				}
			}
		}
		JOINT RightUpLeg
		{
			OFFSET -6.797100 -2.508499 -1.318700
			CHANNELS 3 Xrotation Yrotation Zrotation
			JOINT RightLeg
			{
				OFFSET -0.082453 -29.241932 0.688000
				CHANNELS 3 Xrotation Yrotation Zrotation
				JOINT RightFoot
				{
					OFFSET 0.082453 -29.568058 -0.264600
					CHANNELS 3 Xrotation Yrotation Zrotation
					JOINT RightToeBase
					{
						OFFSET -3.115300 -8.682800 16.113400
						CHANNELS 3 Xrotation Yrotation Zrotation
						End Site
						{
							OFFSET 0.000000 18.567114 0.000000
						}
					}
				}
			}
			JOINT Right_ShortSleeve
			{
				OFFSET -0.265923 -10.480953 1.153800
				CHANNELS 3 Xrotation Yrotation Zrotation
				End Site
				{
					OFFSET -1.725766 19.823910 0.000000
				}
			}
		}
	}
	JOINT Spine
	{
		OFFSET 0.000000 13.368103 0.470500
		CHANNELS 3 Xrotation Yrotation Zrotation
		JOINT Spine1
		{
			OFFSET 0.147000 13.837402 0.538800
			CHANNELS 3 Xrotation Yrotation Zrotation
			JOINT Spine2
			{
				OFFSET 0.168000 16.242897 -1.435500
				CHANNELS 3 Xrotation Yrotation Zrotation
				JOINT Neck
				{
					OFFSET 0.217200 18.631500 -1.679100
					CHANNELS 3 Xrotation Yrotation Zrotation
					JOINT Head
					{
						OFFSET 0.000000 6.599396 1.385900
						CHANNELS 3 Xrotation Yrotation Zrotation
						JOINT Hat
						{
							OFFSET -0.532200 27.220596 -10.096100
							CHANNELS 3 Xrotation Yrotation Zrotation
							End Site
							{
								OFFSET 0.000000 22.029861 0.000000
							}
						}
						JOINT HairD
						{
							OFFSET -10.777400 17.437393 -1.325900
							CHANNELS 3 Xrotation Yrotation Zrotation
							JOINT HairD1
							{
								OFFSET -3.290299 -11.051193 1.062200
								CHANNELS 3 Xrotation Yrotation Zrotation
								End Site
								{
									OFFSET 0.000000 11.579437 0.000000
								}
							}
						}
						JOINT HairB
						{
							OFFSET -10.777400 17.437393 1.467900
							CHANNELS 3 Xrotation Yrotation Zrotation
							JOINT HairB1
							{
								OFFSET -1.561200 -12.956299 3.590200
								CHANNELS 3 Xrotation Yrotation Zrotation
								End Site
								{
									OFFSET 0.000000 13.534866 0.000000
								}
							}
						}
						JOINT HairA
						{
							OFFSET 9.713100 17.437393 1.467900
							CHANNELS 3 Xrotation Yrotation Zrotation
							JOINT HairA1
							{
								OFFSET 1.561200 -12.956299 3.590200
								CHANNELS 3 Xrotation Yrotation Zrotation
								End Site
								{
									OFFSET 0.000000 13.534866 0.000000
								}
							}
						}
						JOINT HairC
						{
							OFFSET 9.713100 17.437393 -1.325900
							CHANNELS 3 Xrotation Yrotation Zrotation
							JOINT HairC1
							{
								OFFSET 3.290300 -11.051193 1.062200
								CHANNELS 3 Xrotation Yrotation Zrotation
								End Site
								{
									OFFSET 0.000000 11.579437 0.000000
								}
							}
						}
					}
				}
				JOINT LeftShoulder
				{
					OFFSET 5.101800 15.108002 -2.763700
					CHANNELS 3 Xrotation Yrotation Zrotation
					JOINT LeftArm
					{
						OFFSET 9.825497 2.506317 -1.597400
						CHANNELS 3 Xrotation Yrotation Zrotation
						JOINT LeftForeArm
						{
							OFFSET 21.966244 0.000000 0.000000
							CHANNELS 3 Xrotation Yrotation Zrotation
							JOINT LeftHand
							{
								OFFSET 33.879036 0.000000 0.000000
								CHANNELS 3 Xrotation Yrotation Zrotation
								JOINT LeftHandThumb1
								{
									OFFSET 6.715286 -2.359680 3.363841
									CHANNELS 3 Xrotation Yrotation Zrotation
									JOINT LeftHandThumb2
									{
										OFFSET 2.507072 -1.447464 1.447461
										CHANNELS 3 Xrotation Yrotation Zrotation
										JOINT LeftHandThumb3
										{
											OFFSET 2.898338 -1.673355 1.673357
											CHANNELS 3 Xrotation Yrotation Zrotation
											End Site
											{
												OFFSET -0.295959 3.727692 -0.131651
											}
										}
									}
								}
								JOINT LeftHandIndex1
								{
									OFFSET 14.190811 -0.254547 3.840278
									CHANNELS 3 Xrotation Yrotation Zrotation
									JOINT LeftHandIndex2
									{
										OFFSET 3.551727 0.000000 -0.000000
										CHANNELS 3 Xrotation Yrotation Zrotation
										JOINT LeftHandIndex3
										{
											OFFSET 2.894196 0.000000 0.000000
											CHANNELS 3 Xrotation Yrotation Zrotation
											End Site
											{
												OFFSET -1.000603 2.690872 0.366626
											}
										}
									}
								}
								JOINT LeftHandMiddle1
								{
									OFFSET 13.776489 0.000000 0.000000
									CHANNELS 3 Xrotation Yrotation Zrotation
									JOINT LeftHandMiddle2
									{
										OFFSET 3.438232 0.000000 0.000000
										CHANNELS 3 Xrotation Yrotation Zrotation
										JOINT LeftHandMiddle3
										{
											OFFSET 3.691551 0.000000 0.000000
											CHANNELS 3 Xrotation Yrotation Zrotation
											End Site
											{
												OFFSET -1.082298 3.499527 0.457670
											}
										}
									}
								}
								JOINT LeftHandRing1
								{
									OFFSET 13.966164 -0.268127 -3.067488
									CHANNELS 3 Xrotation Yrotation Zrotation
									JOINT LeftHandRing2
									{
										OFFSET 3.162567 0.000000 0.000000
										CHANNELS 3 Xrotation Yrotation Zrotation
										JOINT LeftHandRing3
										{
											OFFSET 3.324348 0.000000 0.000000
											CHANNELS 3 Xrotation Yrotation Zrotation
											End Site
											{
												OFFSET -0.861900 3.184998 0.405154
											}
										}
									}
								}
								JOINT LeftHandPinky1
								{
									OFFSET 13.131393 -0.168503 -5.746925
									CHANNELS 3 Xrotation Yrotation Zrotation
									JOINT LeftHandPinky2
									{
										OFFSET 2.849182 0.000000 0.000000
										CHANNELS 3 Xrotation Yrotation Zrotation
										JOINT LeftHandPinky3
										{
											OFFSET 2.805038 0.000000 0.000000
											CHANNELS 3 Xrotation Yrotation Zrotation
											End Site
											{
												OFFSET -0.882500 2.642609 0.325652
											}
										}
									}
								}
							}
							JOINT Left_Sleeve
							{
								OFFSET 6.592125 -0.646545 0.805568
								CHANNELS 3 Xrotation Yrotation Zrotation
								End Site
								{
									OFFSET -0.000179 20.275787 -0.000000
								}
							}
						}
					}
				}
				JOINT RightShoulder
				{
					OFFSET -5.731700 15.108002 -2.763700
					CHANNELS 3 Xrotation Yrotation Zrotation
					JOINT RightArm
					{
						OFFSET -9.825497 2.506317 -1.597400
						CHANNELS 3 Xrotation Yrotation Zrotation
						JOINT RightForeArm
						{
							OFFSET -21.966242 0.000000 0.000000
							CHANNELS 3 Xrotation Yrotation Zrotation
							JOINT RightHand
							{
								OFFSET -33.879032 0.000000 0.000000
								CHANNELS 3 Xrotation Yrotation Zrotation
								JOINT RightHandThumb1
								{
									OFFSET -6.715286 -2.359680 3.363841
									CHANNELS 3 Xrotation Yrotation Zrotation
									JOINT RightHandThumb2
									{
										OFFSET -2.507072 -1.447464 1.447461
										CHANNELS 3 Xrotation Yrotation Zrotation
										JOINT RightHandThumb3
										{
											OFFSET -2.898338 -1.673355 1.673357
											CHANNELS 3 Xrotation Yrotation Zrotation
											End Site
											{
												OFFSET 0.295959 3.727692 -0.131651
											}
										}
									}
								}
								JOINT RightHandIndex1
								{
									OFFSET -14.190811 -0.254547 3.840278
									CHANNELS 3 Xrotation Yrotation Zrotation
									JOINT RightHandIndex2
									{
										OFFSET -3.551727 0.000000 -0.000000
										CHANNELS 3 Xrotation Yrotation Zrotation
										JOINT RightHandIndex3
										{
											OFFSET -2.894196 0.000000 0.000000
											CHANNELS 3 Xrotation Yrotation Zrotation
											End Site
											{
												OFFSET 1.000603 2.690872 0.366626
											}
										}
									}
								}
								JOINT RightHandMiddle1
								{
									OFFSET -13.776489 0.000000 0.000000
									CHANNELS 3 Xrotation Yrotation Zrotation
									JOINT RightHandMiddle2
									{
										OFFSET -3.438232 0.000000 0.000000
										CHANNELS 3 Xrotation Yrotation Zrotation
										JOINT RightHandMiddle3
										{
											OFFSET -3.691551 0.000000 0.000000
											CHANNELS 3 Xrotation Yrotation Zrotation
											End Site
											{
												OFFSET 1.082298 3.499527 0.457670
											}
										}
									}
								}
								JOINT RightHandRing1
								{
									OFFSET -13.966164 -0.268127 -3.067488
									CHANNELS 3 Xrotation Yrotation Zrotation
									JOINT RightHandRing2
									{
										OFFSET -3.162567 0.000000 0.000000
										CHANNELS 3 Xrotation Yrotation Zrotation
										JOINT RightHandRing3
										{
											OFFSET -3.324348 0.000000 0.000000
											CHANNELS 3 Xrotation Yrotation Zrotation
											End Site
											{
												OFFSET 0.861900 3.184998 0.405154
											}
										}
									}
								}
								JOINT RightHandPinky1
								{
									OFFSET -13.131393 -0.168503 -5.746925
									CHANNELS 3 Xrotation Yrotation Zrotation
									JOINT RightHandPinky2
									{
										OFFSET -2.849182 0.000000 0.000000
										CHANNELS 3 Xrotation Yrotation Zrotation
										JOINT RightHandPinky3
										{
											OFFSET -2.805038 0.000000 0.000000
											CHANNELS 3 Xrotation Yrotation Zrotation
											End Site
											{
												OFFSET 0.882500 2.642609 0.325652
											}
										}
									}
								}
							}
							JOINT Right_Sleeve
							{
								OFFSET -6.592125 -0.646545 0.805568
								CHANNELS 3 Xrotation Yrotation Zrotation
								End Site
								{
									OFFSET 0.000179 20.275787 -0.000000
								}
							}
						}
					}
				}
				JOINT Bind_Right_JacketString
				{
					OFFSET -3.534800 11.969597 7.200700
					CHANNELS 3 Xrotation Yrotation Zrotation
					JOINT Bind_Right_JacketString1
					{
						OFFSET -0.319900 -6.102600 2.794100
						CHANNELS 3 Xrotation Yrotation Zrotation
						End Site
						{
							OFFSET 0.000000 6.719452 0.000000
						}
					}
				}
				JOINT Bind_Left_JacketString
				{
					OFFSET 2.904800 11.969597 7.200700
					CHANNELS 3 Xrotation Yrotation Zrotation
					JOINT Bind_Left_JacketString1
					{
						OFFSET 0.364800 -5.904503 3.186800
						CHANNELS 3 Xrotation Yrotation Zrotation
						End Site
						{
							OFFSET 0.000000 6.719513 0.000000
						}
					}
				}
				JOINT HairE
				{
					OFFSET 5.915200 17.612701 -11.592200
					CHANNELS 3 Xrotation Yrotation Zrotation
					JOINT HairE1
					{
						OFFSET 0.289200 -7.171898 -1.284500
						CHANNELS 3 Xrotation Yrotation Zrotation
						End Site
						{
							OFFSET 0.000000 7.291756 0.000000
						}
					}
				}
				JOINT HairF
				{
					OFFSET -0.864800 17.612701 -11.592200
					CHANNELS 3 Xrotation Yrotation Zrotation
					JOINT HairF1
					{
						OFFSET 0.000000 -14.087097 -2.127501
						CHANNELS 3 Xrotation Yrotation Zrotation
						End Site
						{
							OFFSET 0.000000 14.246841 0.000000
						}
					}
				}
				JOINT HairG
				{
					OFFSET -8.087700 17.612701 -11.592200
					CHANNELS 3 Xrotation Yrotation Zrotation
					JOINT HairG1
					{
						OFFSET -0.293600 -6.081398 -0.910100
						CHANNELS 3 Xrotation Yrotation Zrotation
						End Site
						{
							OFFSET 0.000000 6.156120 0.000000
						}
					}
				}
			}
		}
	}
	JOINT Pouch
	{
		OFFSET 0.000000 4.394501 10.847300
		CHANNELS 3 Xrotation Yrotation Zrotation
		End Site
		{
			OFFSET 0.000000 21.880577 0.000000
		}
	}
	JOINT Bag
	{
		OFFSET -13.229000 4.813004 -0.593300
		CHANNELS 3 Xrotation Yrotation Zrotation
		End Site
		{
			OFFSET 0.000000 21.880577 0.000000
		}
	}
	JOINT OccupyGuyFacialAnim_Joint
	{
		OFFSET 1.000000 -70.206398 -1.655000
		CHANNELS 3 Xrotation Yrotation Zrotation
		End Site
		{
			OFFSET 0.000000 21.880577 0.000000
		}
	}
}
MOTION
Frames: 4
Frame Time: 0.033333
-0.626197 63.498581 1.115654 11.460692 -26.090168 10.935178 -0.000000 0.000000 0.000001 -46.764321 15.501399 5.716407 73.999943 0.133050 -0.493187 -17.863416 3.647501 3.519272 0.000002 0.000000 0.000001 -0.000001 -0.000000 -0.000000 -44.719499 4.661959 7.296027 57.729729 2.296115 -6.358348 -22.259928 -4.380890 -4.083510 0.000000 -0.000000 -0.000000 -0.000002 0.000000 0.000000 19.930589 -9.224159 -4.062460 4.267294 -2.265766 -1.715060 4.320598 -2.188969 -1.633765 2.207813 1.626214 1.820280 -27.986702 18.515258 2.240171 -0.000000 0.000000 -0.000000 -0.000000 0.000000 -0.000000 -0.000000 0.000000 -0.000000 -0.000000 0.000000 -0.000000 -0.000000 0.000002 -0.000000 -0.000000 0.000000 -0.000000 -0.000000 0.000002 -0.000000 -0.000000 0.000000 -0.000000 -0.000000 0.000000 -0.000000 9.806601 -14.958463 -10.187609 -29.915546 6.886804 -46.302252 -0.000628 -86.968020 -0.000683 -133.787369 7.095335 19.083286 22.170295 -26.955825 21.639067 -18.755187 11.865895 -5.299195 -0.000001 -0.000001 -0.000001 2.920537 7.536249 -72.179595 2.284151 4.641102 -52.390020 0.000002 0.000003 -0.000001 2.715267 7.456504 -71.638699 3.021114 5.123239 -61.032774 0.000006 0.000001 0.000001 1.332014 7.030567 -72.173912 3.334040 5.283730 -64.482231 -0.000000 0.000001 0.000001 -0.352199 7.368809 -81.773709 1.697287 4.124439 -44.721821 0.000001 0.000000 -0.000002 0.000001 0.000001 0.000002 -0.740867 19.336882 19.220951 -1.631434 36.102157 30.408740 0.000057 104.084215 -0.000083 -29.791752 -32.691918 7.100525 52.323631 29.641836 -26.183148 42.378342 -24.929974 37.205161 0.000001 -0.000003 0.000000 -2.012467 2.205765 21.312830 2.896819 -4.312320 67.768987 0.000001 0.000001 0.000000 13.456655 -8.790203 78.781888 5.608645 -4.559132 101.801442 0.000003 0.000000 0.000005 8.262303 -7.055089 88.116038 5.520469 -4.576637 100.694255 -0.000001 -0.000000 -0.000004 4.707876 -6.937681 92.892062 2.523287 -4.140503 62.703636 -0.000001 -0.000002 -0.000003 -0.000000 0.000000 -0.000001 -0.000000 -0.000000 -0.000000 -0.000000 0.000003 -0.000003 -0.000000 -0.000000 -0.000000 -0.000000 -0.000000 -0.000000 -0.000000 -0.000000 -0.000000 -0.000000 0.000003 -0.000003 -0.000000 -0.000000 -0.000000 -0.000000 -0.000000 -0.000000 -0.000000 -0.000000 -0.000000 -0.000000 0.000003 -0.000003 -0.000000 0.000000 0.000001 -0.000000 0.000000 0.000001 -0.000000 0.000000 0.000001 
-0.337377 63.564301 0.566519 11.482839 -26.561479 10.845257 -0.000000 0.000001 -0.000000 -45.044435 15.989275 5.749674 73.919039 -0.214688 -0.776953 -19.022797 3.015113 3.599217 0.000000 0.000001 0.000001 -0.000001 0.000000 0.000000 -45.079751 4.546038 7.435516 57.184505 3.026735 -6.384858 -21.249762 -4.550121 -4.195359 0.000000 -0.000000 -0.000000 -0.000002 0.000003 0.000000 19.947620 -9.075640 -4.028655 4.267462 -2.220393 -1.714988 4.320762 -2.143219 -1.634035 2.218413 1.626117 1.820360 -27.953384 18.529728 2.219947 0.000000 -0.000002 0.000001 0.000000 -0.000002 0.000001 0.000000 -0.000002 0.000001 0.000000 -0.000002 0.000001 0.000000 -0.000000 -0.000000 0.000000 -0.000002 0.000001 0.000000 -0.000000 -0.000000 0.000000 -0.000002 0.000001 0.000000 -0.000002 0.000001 9.823901 -14.928579 -10.160319 -30.013368 6.804637 -46.463086 -0.000359 -86.778885 -0.000312 -133.630138 7.356342 19.140400 22.219008 -26.959950 21.730003 -18.755191 11.865896 -5.299191 0.000001 0.000001 0.000001 2.913778 7.532342 -72.104791 2.284148 4.641104 -52.390023 0.000003 0.000002 0.000002 2.708635 7.452362 -71.564332 3.021116 5.123246 -61.032774 0.000004 0.000003 -0.000001 1.325883 7.024562 -72.098876 3.334039 5.283728 -64.482231 -0.000003 0.000003 0.000001 -0.358809 7.360556 -81.698167 1.697292 4.124438 -44.721818 0.000001 -0.000002 -0.000001 -0.000003 0.000001 0.000001 -0.734831 19.361723 19.133341 -1.378956 36.027479 30.293938 0.000012 104.186019 -0.000022 -29.998884 -32.542464 6.663436 52.323620 29.641836 -26.183141 42.378329 -24.929968 37.205164 -0.000003 -0.000003 0.000000 -2.012464 2.205765 21.312830 2.896822 -4.312315 67.768987 0.000005 0.000001 0.000000 13.456661 -8.790201 78.781888 5.608647 -4.559134 101.801449 0.000004 0.000003 -0.000000 8.262310 -7.055089 88.116038 5.520465 -4.576637 100.694262 0.000002 0.000003 -0.000002 4.707877 -6.937680 92.892062 2.523287 -4.140500 62.703630 -0.000000 0.000001 -0.000001 -0.000001 -0.000000 -0.000001 -0.000000 0.000000 -0.000001 -0.000002 0.000002 -0.000003 -0.000000 0.000000 -0.000001 -0.000000 0.000000 -0.000001 -0.000000 0.000000 -0.000001 -0.000002 0.000002 -0.000003 -0.000000 0.000000 -0.000001 -0.000000 0.000000 -0.000001 -0.000000 0.000000 -0.000001 -0.000002 0.000002 -0.000003 -0.000000 0.000001 -0.000000 -0.000000 0.000001 -0.000000 -0.000000 0.000001 -0.000000 
-0.053748 63.644478 0.009515 11.523033 -27.024163 10.765067 -0.000000 0.000001 -0.000000 -42.969266 16.456818 5.754284 73.010344 -0.646850 -1.008678 -20.114431 2.887139 2.442358 0.000001 0.000000 0.000000 -0.000003 0.000001 0.000000 -45.402064 4.449781 7.612476 56.548700 3.876042 -6.443827 -20.187555 -4.884810 -4.320695 -0.000000 -0.000002 -0.000000 0.000002 0.000000 0.000001 19.964522 -8.928879 -3.996105 4.267680 -2.173960 -1.714896 4.320929 -2.096303 -1.634309 2.230020 1.626031 1.820434 -27.919493 18.545173 2.196178 -0.000000 0.000000 -0.000000 -0.000000 0.000000 -0.000000 -0.000000 0.000000 -0.000000 -0.000000 0.000000 0.000000 -0.000000 -0.000002 -0.000000 -0.000000 0.000000 0.000000 -0.000000 -0.000002 -0.000000 -0.000000 0.000000 -0.000000 -0.000000 0.000000 -0.000000 9.845116 -14.896094 -10.142296 -30.192718 6.740593 -46.611386 0.000851 -86.567498 0.000814 -133.456705 7.685845 19.247681 22.267330 -26.964388 21.823233 -18.755185 11.865897 -5.299192 0.000000 0.000002 -0.000001 2.906863 7.528357 -72.028388 2.284148 4.641104 -52.390020 0.000004 0.000002 0.000002 2.701876 7.448115 -71.488332 3.021114 5.123243 -61.032767 0.000004 -0.000001 0.000000 1.319633 7.018431 -72.022173 3.334040 5.283731 -64.482238 -0.000000 0.000001 0.000002 -0.365544 7.352119 -81.620911 1.697289 4.124440 -44.721821 -0.000001 -0.000001 0.000001 -0.000000 0.000003 0.000003 -0.730755 19.395108 19.034171 -1.141832 35.996917 30.193620 0.000095 104.275774 -0.000083 -30.228208 -32.391086 6.154953 52.323627 29.641839 -26.183143 42.378325 -24.929968 37.205167 -0.000000 -0.000000 0.000003 -2.012466 2.205765 21.312830 2.896822 -4.312318 67.768987 -0.000004 0.000000 0.000000 13.456657 -8.790199 78.781888 5.608648 -4.559134 101.801449 0.000001 0.000000 -0.000001 8.262307 -7.055084 88.116038 5.520459 -4.576634 100.694255 -0.000002 0.000000 -0.000003 4.707876 -6.937679 92.892069 2.523288 -4.140502 62.703630 -0.000001 -0.000000 0.000001 0.000001 -0.000001 -0.000001 0.000001 0.000000 0.000000 0.000002 -0.000000 -0.000000 0.000001 0.000000 -0.000002 0.000001 0.000000 -0.000002 0.000001 0.000000 0.000000 0.000002 -0.000000 -0.000000 0.000001 0.000000 -0.000002 0.000001 0.000000 -0.000002 0.000001 0.000000 0.000000 0.000002 -0.000000 -0.000000 -0.000000 0.000001 -0.000000 -0.000000 0.000001 -0.000000 -0.000000 0.000001 -0.000000 
0.229656 63.735130 -0.546860 11.562712 -27.487106 10.693817 -0.000000 0.000000 0.000000 -40.767661 16.949526 5.600262 71.570267 -0.643540 -1.219037 -21.745871 2.922215 1.684193 -0.000001 -0.000000 0.000001 0.000001 0.000000 -0.000000 -45.681074 4.454486 7.832618 55.821159 4.609805 -6.499531 -19.087288 -5.218376 -4.368587 0.000000 0.000000 -0.000000 0.000001 -0.000002 -0.000000 19.981099 -8.782613 -3.965701 4.267848 -2.125570 -1.714821 4.322871 -2.048504 -1.634576 2.242407 1.625944 1.820511 -27.885178 18.561341 2.169716 0.000000 -0.000001 -0.000000 0.000000 -0.000001 -0.000000 0.000000 -0.000001 -0.000000 0.000000 -0.000001 0.000000 0.000000 0.000001 -0.000000 0.000000 -0.000001 0.000000 0.000000 0.000001 -0.000000 0.000000 -0.000001 -0.000000 0.000000 -0.000001 -0.000000 9.870371 -14.866165 -10.121491 -30.415051 6.693936 -46.774652 -0.000308 -86.308449 -0.000293 -133.279981 8.072811 19.362222 22.315497 -26.967204 21.917987 -18.755180 11.865898 -5.299195 0.000001 -0.000001 -0.000001 2.899859 7.524315 -71.950681 2.284150 4.641102 -52.390023 -0.000004 0.000003 -0.000001 2.695008 7.443818 -71.411055 3.021112 5.123242 -61.032767 0.000002 -0.000002 0.000000 1.313296 7.012219 -71.944179 3.334039 5.283725 -64.482238 -0.000003 0.000002 0.000002 -0.372358 7.343539 -81.542330 1.697286 4.124441 -44.721814 -0.000000 0.000002 -0.000000 -0.000001 0.000000 -0.000002 -0.728004 19.434644 18.926750 -0.910490 35.997125 30.103068 0.000140 104.345189 -0.000133 -30.461472 -32.253816 5.610761 52.323627 29.641839 -26.183148 42.378336 -24.929967 37.205157 0.000000 -0.000001 0.000000 -2.012464 2.205763 21.312833 2.896828 -4.312315 67.768987 -0.000001 0.000001 0.000001 13.456658 -8.790202 78.781888 5.608648 -4.559134 101.801449 0.000001 -0.000004 0.000000 8.262307 -7.055089 88.116038 5.520460 -4.576634 100.694262 -0.000001 0.000001 -0.000002 4.707877 -6.937681 92.892069 2.523288 -4.140503 62.703636 -0.000000 0.000003 0.000001 0.000000 -0.000000 -0.000000 0.000001 0.000001 -0.000001 0.000003 -0.000001 -0.000000 0.000001 0.000001 -0.000000 0.000001 0.000001 -0.000000 0.000001 0.000001 -0.000001 0.000003 -0.000001 -0.000000 0.000001 0.000001 -0.000000 0.000001 0.000001 -0.000000 0.000001 0.000001 -0.000001 0.000003 -0.000001 -0.000000 -0.000000 0.000000 0.000000 -0.000000 0.000000 0.000000 -0.000000 0.000000 0.000000 
